<svg xmlns="http://www.w3.org/2000/svg" xmlns:xlink="http://www.w3.org/1999/xlink" viewBox="0 0 634.46 319.81"><defs><clipPath id="a12bcd79-d2b9-458e-bfd0-1abe9aab44b4" transform="translate(7.33)"><path d="M222.64,216.88q0,26.13-18.36,43.58T160,277.91H113.1V123.68h18.63v32.17h29.21a62.58,62.58,0,0,1,32.29,8.58,57.48,57.48,0,0,1,22.48,24.17A61,61,0,0,1,222.64,216.88Zm-90.91,41.33H159q18.43,0,30.93-11.5t12.49-29.83q0-18.52-12.77-31T158.44,173.4H131.73Z" style="fill:none"/></clipPath><clipPath id="a2f87a88-3d2c-491e-b0e7-2bab47ad2b3c" transform="translate(7.33)"><path d="M109.54,155.6h-47q-22.84,0-39.8,13.62a30,30,0,0,0-4.28,3.42,63.69,63.69,0,0,0-8.13,9.66Q0,197,0,216.64a61,61,0,0,0,6.93,28.27,57.36,57.36,0,0,0,22.48,24.17c.86.51,1.74,1,2.62,1.43a62.17,62.17,0,0,0,29.85,7.33h29q.18,5.85-4.62,12.68Q78.8,301,59.76,301H52.65c-3.06-.13-5.44-.19-7.11-.19V318.4q26,0,37.86-1.76t19.22-12.87a40.8,40.8,0,0,0,6.92-23.19V263.73h0Zm-89.36,61q0-18.33,12.49-29.84t30.94-11.5H90.9v84.81H64.37q-18.44,0-31.31-12.39c-.5-.48-.92-1-1.39-1.46C24.05,238.18,20.18,228.32,20.18,216.64Z" style="fill:none"/></clipPath></defs><g id="e642699e-70ba-41d2-8753-e17f688f90d2" data-name="Capa 2"><g id="fb7e8006-ce88-4715-aa85-441b1ad06c7c" data-name="Capa 1"><g style="clip-path:url(#a12bcd79-d2b9-458e-bfd0-1abe9aab44b4)"><path d="M192.6,290c.07.68.15,1.36.23,2C192.75,291.39,192.67,290.71,192.6,290Z" transform="translate(7.33)" style="fill:none"/><path d="M194.06,301.27c0,.12,0,.23.05.34C194.09,301.5,194.08,301.39,194.06,301.27Z" transform="translate(7.33)" style="fill:none"/><path d="M193.34,296c0,.28.07.58.11.86C193.41,296.61,193.37,296.31,193.34,296Z" transform="translate(7.33)" style="fill:none"/><path d="M104.57,281.86c-.17,1.72-.34,3.43-.53,5.11C104.23,285.29,104.4,283.58,104.57,281.86Z" transform="translate(7.33)" style="fill:none"/><path d="M93.45,282c.17,1.71.34,3.4.52,5.07C93.79,285.44,93.62,283.75,93.45,282Z" transform="translate(7.33)" style="fill:none"/><path d="M103,296c0,.27-.07.55-.11.82C102.89,296.53,102.92,296.25,103,296Z" transform="translate(7.33)" style="fill:none"/><path d="M102.21,301.4a.68.68,0,0,0,0,.14A.68.68,0,0,1,102.21,301.4Z" transform="translate(7.33)" style="fill:none"/><path d="M202.86,281.86c-.17,1.72-.35,3.42-.53,5.11C202.51,285.28,202.69,283.58,202.86,281.86Z" transform="translate(7.33)" style="fill:none"/><path d="M202,290.07c-.07.62-.14,1.26-.22,1.87C201.83,291.33,201.9,290.69,202,290.07Z" transform="translate(7.33)" style="fill:none"/><path d="M191.74,282c.16,1.71.34,3.4.52,5.08C192.08,285.44,191.9,283.75,191.74,282Z" transform="translate(7.33)" style="fill:none"/><path d="M200.5,301.33l0,.21Z" transform="translate(7.33)" style="fill:none"/><path d="M201.22,296.12c0,.22-.05.45-.08.68C201.17,296.57,201.19,296.34,201.22,296.12Z" transform="translate(7.33)" style="fill:none"/><path d="M103.71,289.83l-.24,2.12Z" transform="translate(7.33)" style="fill:none"/><path d="M95.8,301.43a1.1,1.1,0,0,0,0,.18A1.1,1.1,0,0,1,95.8,301.43Z" transform="translate(7.33)" style="fill:none"/><path d="M94.34,290.28c.07.59.13,1.19.2,1.78C94.47,291.47,94.41,290.87,94.34,290.28Z" transform="translate(7.33)" style="fill:none"/><path d="M95.08,296.28c0,.2,0,.41.08.61C95.13,296.69,95.11,296.48,95.08,296.28Z" transform="translate(7.33)" style="fill:none"/><path d="M102.19,301.54a.68.68,0,0,1,0-.14c.22-1.52.43-3,.64-4.6,0-.27.07-.55.11-.82.17-1.34.34-2.67.51-4l.24-2.12c.11-.95.23-1.9.33-2.86.19-1.68.36-3.39.53-5.11q2.52-25.78,2.52-54.72,0-28.71-2.52-54.61A374.35,374.35,0,0,0,99,134.23a371.23,371.23,0,0,0-5.54,38Q90.95,198,91,227.14q0,29.3,2.5,54.9c.17,1.71.34,3.4.52,5.07.12,1.07.25,2.12.37,3.17.07.59.13,1.19.2,1.78.18,1.42.36,2.83.54,4.22,0,.2,0,.41.08.61.2,1.53.42,3,.64,4.54a1.1,1.1,0,0,0,0,.18q1.37,9.33,3.1,17.83c0,.12,0,.25.08.37,0-.12,0-.24.07-.36h0Q100.81,310.93,102.19,301.54Z" transform="translate(7.33)" style="fill:#d5232e"/><path d="M200.47,301.54l0-.21c.22-1.5.43-3,.64-4.53,0-.23.05-.46.08-.68.18-1.38.36-2.77.53-4.18.08-.61.15-1.25.22-1.87l.36-3.1c.18-1.69.36-3.39.53-5.11q2.52-25.78,2.52-54.72,0-28.71-2.52-54.61a376.93,376.93,0,0,0-5.58-38.29,368.27,368.27,0,0,0-5.54,38q-2.51,25.8-2.5,54.89,0,29.3,2.5,54.9c.16,1.71.34,3.4.52,5.08.11,1,.22,1.94.34,2.91.07.68.15,1.36.23,2,.16,1.34.33,2.66.51,4,0,.28.07.58.11.86.19,1.48.4,2.94.61,4.38,0,.12,0,.23.05.34q1.37,9.34,3.11,17.84h0c0,.12,0,.24.07.35,0-.11,0-.23.07-.35h0Q199.1,310.93,200.47,301.54Z" transform="translate(7.33)" style="fill:#008c3c"/><path d="M39.69,227.14q0-29.12,2.5-54.89a346,346,0,0,1,7.33-46.17c.11-.47.23-.91.34-1.37-3.13-12.78-6.65-22.62-10.57-29.42Q33.2,84.71,26.38,84.73t-13,10.56q-6.1,10.58-10.93,30.79a346.07,346.07,0,0,0-7.32,46.17q-2.5,25.8-2.5,54.89,0,29.3,2.5,54.9A360.76,360.76,0,0,0,.64,319.45h47A363.36,363.36,0,0,1,42.19,282Q39.7,256.44,39.69,227.14Z" transform="translate(7.33)" style="fill:#f7d000"/><path d="M254.11,172.53a353.78,353.78,0,0,0-7.34-46.45q-4.82-20.2-10.91-30.79T223,84.73q-6.84,0-13,10.56t-10.94,30.79c-.62,2.64-1.21,5.38-1.78,8.16a376.93,376.93,0,0,1,5.58,38.29q2.52,25.88,2.52,54.61,0,28.94-2.52,54.72c-.17,1.72-.35,3.42-.53,5.11l-.36,3.1c-.07.62-.14,1.26-.22,1.87-.17,1.41-.35,2.8-.53,4.18,0,.22-.05.45-.08.68-.21,1.52-.42,3-.64,4.53l0,.21q-1.38,9.39-3.11,17.91h51.26a364.22,364.22,0,0,0,5.49-37.59q2.52-25.78,2.52-54.72Q256.63,198.43,254.11,172.53Z" transform="translate(7.33)" style="fill:#72bb7c"/><path d="M194.11,301.61c0-.11,0-.22-.05-.34-.21-1.44-.42-2.9-.61-4.38,0-.28-.08-.58-.11-.86-.18-1.31-.35-2.63-.51-4-.08-.67-.16-1.35-.23-2-.12-1-.23-1.93-.34-2.91-.18-1.68-.36-3.37-.52-5.08q-2.51-25.6-2.5-54.9,0-29.12,2.5-54.89a368.27,368.27,0,0,1,5.54-38c-.56-2.78-1.14-5.52-1.77-8.16q-4.81-20.2-10.91-30.79T171.7,84.73c-4.57,0-8.88,3.51-13,10.56-3.93,6.8-7.46,16.64-10.59,29.42.12.47.23.9.34,1.37a355.37,355.37,0,0,1,7.35,46.45q2.52,25.88,2.51,54.61,0,28.94-2.51,54.72a366.83,366.83,0,0,1-5.5,37.59h46.89Q195.48,311,194.11,301.61Z" transform="translate(7.33)" style="fill:#298ece"/><path d="M158.34,227.14q0-28.71-2.51-54.61a355.37,355.37,0,0,0-7.35-46.45c-.11-.47-.22-.9-.34-1.37-.11.47-.23.9-.34,1.37a346.07,346.07,0,0,0-7.32,46.17Q138,198,138,227.14q0,29.3,2.5,54.9A366.24,366.24,0,0,0,146,319.45h4.38a366.83,366.83,0,0,0,5.5-37.59Q158.35,256.08,158.34,227.14Z" transform="translate(7.33)" style="fill:#60378c"/><path d="M138,227.14q0-29.12,2.5-54.89a346.07,346.07,0,0,1,7.32-46.17c.11-.47.23-.9.34-1.37-3.13-12.78-6.65-22.62-10.57-29.42q-6.1-10.58-12.9-10.56t-13,10.56q-6.12,10.58-10.94,30.79c-.63,2.64-1.21,5.37-1.78,8.15a374.35,374.35,0,0,1,5.58,38.3q2.52,25.88,2.52,54.61,0,28.94-2.52,54.72c-.17,1.72-.34,3.43-.53,5.11-.1,1-.22,1.91-.33,2.86l-.24,2.12c-.17,1.36-.34,2.69-.51,4,0,.27-.07.55-.11.82-.21,1.55-.42,3.08-.64,4.6a.68.68,0,0,0,0,.14q-1.38,9.39-3.12,17.91H146A366.24,366.24,0,0,1,140.48,282Q138,256.44,138,227.14Z" transform="translate(7.33)" style="fill:#d8398c"/><path d="M95.8,301.43c-.22-1.5-.44-3-.64-4.54,0-.2,0-.41-.08-.61-.18-1.39-.36-2.8-.54-4.22-.07-.59-.13-1.19-.2-1.78-.12-1-.25-2.1-.37-3.17-.18-1.67-.35-3.36-.52-5.07q-2.51-25.6-2.5-54.9,0-29.12,2.5-54.89a371.23,371.23,0,0,1,5.54-38c-.56-2.78-1.14-5.51-1.76-8.15q-4.83-20.2-10.92-30.79T73.42,84.73q-6.86,0-13,10.56c-3.94,6.8-7.47,16.64-10.6,29.42.11.46.23.9.34,1.37a353.78,353.78,0,0,1,7.34,46.45q2.53,25.88,2.52,54.61,0,28.94-2.52,54.72a367,367,0,0,1-5.49,37.59H98.92q-1.73-8.51-3.1-17.83A1.1,1.1,0,0,1,95.8,301.43Z" transform="translate(7.33)" style="fill:#f39817"/><path d="M60.06,227.14q0-28.71-2.52-54.61a353.78,353.78,0,0,0-7.34-46.45c-.11-.47-.23-.91-.34-1.37-.11.46-.23.9-.34,1.37a346,346,0,0,0-7.33,46.17q-2.49,25.8-2.5,54.89,0,29.3,2.5,54.9a363.36,363.36,0,0,0,5.48,37.41h4.38a367,367,0,0,0,5.49-37.59Q60.08,256.08,60.06,227.14Z" transform="translate(7.33)" style="fill:#ef7e1b"/></g><g style="clip-path:url(#a2f87a88-3d2c-491e-b0e7-2bab47ad2b3c)"><path d="M235.71,292.06c.1.63.19,1.26.29,1.89C235.9,293.32,235.81,292.69,235.71,292.06Z" transform="translate(7.33)" style="fill:none"/><path d="M237.48,302.53l.06.32Z" transform="translate(7.33)" style="fill:none"/><path d="M236.6,297.65c.05.26.09.54.14.8C236.69,298.19,236.65,297.91,236.6,297.65Z" transform="translate(7.33)" style="fill:none"/><path d="M129.6,284.44c-.2,1.61-.42,3.19-.64,4.76C129.18,287.63,129.4,286.05,129.6,284.44Z" transform="translate(7.33)" style="fill:none"/><path d="M116.19,284.61c.21,1.59.42,3.17.64,4.73C116.61,287.78,116.4,286.2,116.19,284.61Z" transform="translate(7.33)" style="fill:none"/><path d="M127.65,297.6l-.12.77Z" transform="translate(7.33)" style="fill:none"/><path d="M126.75,302.65a.69.69,0,0,0,0,.13A.69.69,0,0,1,126.75,302.65Z" transform="translate(7.33)" style="fill:none"/><path d="M248.08,284.44c-.2,1.61-.41,3.19-.63,4.76C247.67,287.63,247.88,286.05,248.08,284.44Z" transform="translate(7.33)" style="fill:none"/><path d="M247,292.1c-.08.57-.17,1.16-.26,1.74C246.84,293.26,246.93,292.67,247,292.1Z" transform="translate(7.33)" style="fill:none"/><path d="M234.68,284.61c.2,1.59.41,3.17.63,4.73C235.09,287.78,234.88,286.2,234.68,284.61Z" transform="translate(7.33)" style="fill:none"/><path d="M245.24,302.58l0,.21Z" transform="translate(7.33)" style="fill:none"/><path d="M246.11,297.73c0,.21-.07.42-.1.63C246,298.15,246.08,297.94,246.11,297.73Z" transform="translate(7.33)" style="fill:none"/><path d="M128.57,291.87l-.3,2Z" transform="translate(7.33)" style="fill:none"/><path d="M119,302.68l0,.16Z" transform="translate(7.33)" style="fill:none"/><path d="M117.27,292.28l.24,1.67Z" transform="translate(7.33)" style="fill:none"/><path d="M118.16,297.88l.09.56Z" transform="translate(7.33)" style="fill:none"/><path d="M126.73,302.78a.69.69,0,0,1,0-.13c.27-1.41.53-2.84.78-4.28l.12-.77c.21-1.24.42-2.49.62-3.76l.3-2c.13-.89.27-1.77.39-2.67.22-1.57.44-3.15.64-4.76a406.17,406.17,0,0,0,3-51,406.58,406.58,0,0,0-3-50.89,275.49,275.49,0,0,0-6.73-35.71,274.22,274.22,0,0,0-6.68,35.45,411.4,411.4,0,0,0-3,51.15,409.06,409.06,0,0,0,3,51.17c.21,1.59.42,3.17.64,4.73.14,1,.29,2,.44,2.94l.24,1.67c.21,1.32.43,2.63.65,3.93l.09.56c.25,1.43.51,2.84.77,4.24l0,.16q1.65,8.71,3.74,16.62l.09.35.09-.33h0Q125.07,311.53,126.73,302.78Z" transform="translate(7.33)" style="fill:#d5232e"/><path d="M245.21,302.79l0-.21c.27-1.39.52-2.79.77-4.22,0-.21.07-.42.1-.63.22-1.29.44-2.58.64-3.89.09-.58.18-1.17.26-1.74.15-1,.3-1.92.44-2.9.22-1.57.43-3.15.63-4.76a406.11,406.11,0,0,0,3-51,406.53,406.53,0,0,0-3-50.89,277.41,277.41,0,0,0-6.72-35.7,272.69,272.69,0,0,0-6.68,35.44,411.4,411.4,0,0,0-3,51.15,409.06,409.06,0,0,0,3,51.17c.2,1.59.41,3.17.63,4.73.13.91.27,1.81.4,2.72.1.63.19,1.26.29,1.89.19,1.24.4,2.47.6,3.7.05.26.09.54.14.8.24,1.38.48,2.74.74,4.08l.06.32q1.65,8.72,3.75,16.63h0c0,.1.05.21.08.32,0-.11,0-.22.08-.32h0Q243.55,311.53,245.21,302.79Z" transform="translate(7.33)" style="fill:#008c3c"/><path d="M51.39,233.44a411.34,411.34,0,0,1,3-51.15,256.17,256.17,0,0,1,8.82-43c.14-.44.28-.85.42-1.28-3.78-11.91-8-21.07-12.75-27.41q-7.34-9.87-15.55-9.85t-15.63,9.85q-7.36,9.85-13.18,28.69a256.17,256.17,0,0,0-8.82,43,411.4,411.4,0,0,0-3,51.15,409.06,409.06,0,0,0,3,51.17,265.07,265.07,0,0,0,6.6,34.87H61a266.72,266.72,0,0,1-6.6-34.87A409,409,0,0,1,51.39,233.44Z" transform="translate(7.33)" style="fill:#f7d000"/><path d="M309.87,182.55a262,262,0,0,0-8.85-43.3q-5.79-18.82-13.16-28.69t-15.55-9.85q-8.24,0-15.62,9.85t-13.18,28.69c-.75,2.47-1.46,5-2.15,7.6a277.41,277.41,0,0,1,6.72,35.7,406.53,406.53,0,0,1,3,50.89,406.11,406.11,0,0,1-3,51c-.2,1.61-.41,3.19-.63,4.76-.14,1-.29,1.93-.44,2.9-.08.57-.17,1.16-.26,1.74-.2,1.31-.42,2.6-.64,3.89,0,.21-.07.42-.1.63-.25,1.43-.5,2.83-.77,4.22l0,.21q-1.67,8.74-3.76,16.69h61.8a270.51,270.51,0,0,0,6.62-35,406.11,406.11,0,0,0,3-51A406.53,406.53,0,0,0,309.87,182.55Z" transform="translate(7.33)" style="fill:#72bb7c"/><path d="M237.54,302.85l-.06-.32c-.26-1.34-.5-2.7-.74-4.08-.05-.26-.09-.54-.14-.8-.2-1.23-.41-2.46-.6-3.7-.1-.63-.19-1.26-.29-1.89-.13-.91-.27-1.81-.4-2.72-.22-1.56-.43-3.14-.63-4.73a409.06,409.06,0,0,1-3-51.17,411.4,411.4,0,0,1,3-51.15,272.69,272.69,0,0,1,6.68-35.44c-.68-2.59-1.38-5.13-2.13-7.6q-5.8-18.82-13.15-28.69t-15.56-9.85q-8.25,0-15.63,9.85c-4.74,6.34-9,15.51-12.76,27.42.13.43.27.83.41,1.27a262,262,0,0,1,8.85,43.3,408.49,408.49,0,0,1,3,50.89,408.07,408.07,0,0,1-3,51,268.77,268.77,0,0,1-6.63,35h56.53Q239.19,311.56,237.54,302.85Z" transform="translate(7.33)" style="fill:#298ece"/><path d="M194.42,233.44a408.49,408.49,0,0,0-3-50.89,262,262,0,0,0-8.85-43.3c-.14-.44-.28-.84-.41-1.27-.14.43-.28.83-.42,1.27a256.17,256.17,0,0,0-8.82,43,411.4,411.4,0,0,0-3,51.15,409.06,409.06,0,0,0,3,51.17,266.72,266.72,0,0,0,6.6,34.87h5.27a268.77,268.77,0,0,0,6.63-35A408.07,408.07,0,0,0,194.42,233.44Z" transform="translate(7.33)" style="fill:#60378c"/><path d="M169.88,233.44a411.4,411.4,0,0,1,3-51.15,256.17,256.17,0,0,1,8.82-43c.14-.44.28-.84.42-1.27-3.77-11.91-8-21.08-12.75-27.42q-7.35-9.87-15.55-9.85t-15.62,9.85q-7.38,9.85-13.2,28.69c-.75,2.46-1.45,5-2.14,7.59a275.49,275.49,0,0,1,6.73,35.71,406.58,406.58,0,0,1,3,50.89,406.17,406.17,0,0,1-3,51c-.2,1.61-.42,3.19-.64,4.76-.12.9-.26,1.78-.39,2.67l-.3,2c-.2,1.27-.41,2.52-.62,3.76l-.12.77c-.25,1.44-.51,2.87-.78,4.28a.69.69,0,0,0,0,.13q-1.67,8.76-3.76,16.7h56.52a266.72,266.72,0,0,1-6.6-34.87A409.06,409.06,0,0,1,169.88,233.44Z" transform="translate(7.33)" style="fill:#d8398c"/><path d="M119,302.68c-.26-1.4-.52-2.81-.77-4.24l-.09-.56c-.22-1.3-.44-2.61-.65-3.93l-.24-1.67c-.15-1-.3-1.95-.44-2.94-.22-1.56-.43-3.14-.64-4.73a409.06,409.06,0,0,1-3-51.17,411.4,411.4,0,0,1,3-51.15,274.22,274.22,0,0,1,6.68-35.45c-.68-2.58-1.37-5.13-2.12-7.59q-5.82-18.82-13.16-28.69t-15.54-9.85q-8.26,0-15.63,9.85c-4.75,6.34-9,15.5-12.77,27.41.13.43.27.84.41,1.28a261.06,261.06,0,0,1,8.84,43.3,404.59,404.59,0,0,1,3,50.89,404.18,404.18,0,0,1-3,51,267.17,267.17,0,0,1-6.62,35H122.8v0q-2.08-7.92-3.74-16.62Z" transform="translate(7.33)" style="fill:#f39817"/><path d="M76,233.44a404.59,404.59,0,0,0-3-50.89,261.06,261.06,0,0,0-8.84-43.3c-.14-.44-.28-.85-.41-1.28-.14.43-.28.84-.42,1.28a256.17,256.17,0,0,0-8.82,43,411.34,411.34,0,0,0-3,51.15,409,409,0,0,0,3,51.17A266.72,266.72,0,0,0,61,319.48h5.27a267.17,267.17,0,0,0,6.62-35A404.18,404.18,0,0,0,76,233.44Z" transform="translate(7.33)" style="fill:#ef7e1b"/></g><path d="M207.72,23.9H172.1a47.4,47.4,0,0,0-30.18,10.17,23.86,23.86,0,0,0-3.25,2.56,48.65,48.65,0,0,0-6.16,7.21,43.13,43.13,0,0,0-7.84,25.66,45.12,45.12,0,0,0,5.25,21.12A43.18,43.18,0,0,0,147,108.7c.65.38,1.32.72,2,1.06a47.63,47.63,0,0,0,22.62,5.48h22q.14,4.38-3.5,9.48-5.67,7.86-20.11,7.86h-5.39c-2.33-.09-4.12-.14-5.39-.14v13.11q19.68,0,28.7-1.31t14.58-9.62a30.2,30.2,0,0,0,5.24-17.33V104.7h0ZM140,69.51q0-13.7,9.47-22.29t23.45-8.6h20.69V102H173.48a33.16,33.16,0,0,1-23.74-9.26c-.38-.35-.7-.72-1.05-1.09A30.8,30.8,0,0,1,140,69.51Z" transform="translate(7.33)" style="fill:#2dad7c"/><path d="M231.33,257.59h1.93v11.67a18.87,18.87,0,0,1-.5,4.81,5.66,5.66,0,0,1-1.83,3,5.17,5.17,0,0,1-3.38,1.08,5,5,0,0,1-4.32-1.95c-.95-1.31-1.43-3.61-1.43-6.92V257.59h1.93v11.66a15,15,0,0,0,.37,4,3.56,3.56,0,0,0,1.24,1.87,3.89,3.89,0,0,0,5.06-.68q.93-1.32.93-5.15Z" transform="translate(7.33)" style="fill:#2dad7c"/><path d="M236.33,277.79v-20.2h2L246,273.48V257.59h1.84v20.2h-2l-7.66-15.9v15.9Z" transform="translate(7.33)" style="fill:#2dad7c"/><path d="M251.32,277.79v-20.2h1.93v20.2Z" transform="translate(7.33)" style="fill:#2dad7c"/><path d="M256.63,277.79v-20.2h9.84V260h-7.91v6.26h6.84v2.38h-6.84v9.18Z" transform="translate(7.33)" style="fill:#2dad7c"/><path d="M268.27,268c0-3.45.67-6.09,2-7.95a6,6,0,0,1,5-2.77,5.56,5.56,0,0,1,3.52,1.24,8.2,8.2,0,0,1,2.52,3.6,15.38,15.38,0,0,1,.92,5.63,13.43,13.43,0,0,1-1.79,7.32,5.84,5.84,0,0,1-10.37-.08A13.06,13.06,0,0,1,268.27,268Zm2,0a9.92,9.92,0,0,0,1.45,5.8,4.05,4.05,0,0,0,7.08,0,10.74,10.74,0,0,0,1.44-6.12,13.77,13.77,0,0,0-.74-4.66,5.65,5.65,0,0,0-1.72-2.52,3.84,3.84,0,0,0-2.5-.94,4.23,4.23,0,0,0-3.6,2.06C270.73,263,270.26,265.1,270.26,268Z" transform="translate(7.33)" style="fill:#2dad7c"/><path d="M284.53,277.79v-20.2H291a6.05,6.05,0,0,1,3,.56,4.11,4.11,0,0,1,1.58,1.88,7,7,0,0,1,.63,3.05,6.15,6.15,0,0,1-1.05,3.71,4.76,4.76,0,0,1-3.06,1.8,5.33,5.33,0,0,1,1.24,1.12,14.13,14.13,0,0,1,1.52,2.58l2.54,5.5H295l-1.95-4.2a27,27,0,0,0-1.7-3.32,3.65,3.65,0,0,0-1.11-1.16,3.29,3.29,0,0,0-1.51-.29h-2.23v9Zm1.93-11.29h4.14a4.53,4.53,0,0,0,2.07-.37,2.7,2.7,0,0,0,1.12-1.17,4,4,0,0,0,.41-1.86,3.51,3.51,0,0,0-.79-2.41,3,3,0,0,0-2.34-.87h-4.61Z" transform="translate(7.33)" style="fill:#2dad7c"/><path d="M299.06,277.79v-20.2H302l3.46,14.3.69,3q.25-1.11.78-3.24l3.49-14.05H313v20.2h-1.86v-16.9l-4.25,16.9h-1.73l-4.23-17.19v17.19Z" transform="translate(7.33)" style="fill:#2dad7c"/><path d="M316,277.79v-20.2h10.54V260h-8.61v6.17H326v2.39h-8.07v6.88h8.95v2.38Z" transform="translate(7.33)" style="fill:#2dad7c"/><path d="M328.76,271.28l1.82-.21a6.76,6.76,0,0,0,.66,2.59,4,4,0,0,0,1.47,1.5,4.14,4.14,0,0,0,2.16.56,3.65,3.65,0,0,0,2.68-1,3.71,3.71,0,0,0,.6-4,2.71,2.71,0,0,0-1-1.09,17.49,17.49,0,0,0-3-1.2,9.89,9.89,0,0,1-2.92-1.4,4.79,4.79,0,0,1-1.37-1.79,6,6,0,0,1-.48-2.45,5.84,5.84,0,0,1,1.39-4,4.83,4.83,0,0,1,3.76-1.55,5.42,5.42,0,0,1,2.85.73,4.87,4.87,0,0,1,1.89,2.09,7.59,7.59,0,0,1,.72,3.21l-1.86.2a4.63,4.63,0,0,0-1-2.92,3.26,3.26,0,0,0-2.51-1,3.41,3.41,0,0,0-2.49.83,2.83,2.83,0,0,0-.87,2.15,2.62,2.62,0,0,0,.64,1.9,6.93,6.93,0,0,0,2.83,1.37,17.79,17.79,0,0,1,3,1.18,5.27,5.27,0,0,1,2,2,6.24,6.24,0,0,1,.68,3,6.9,6.9,0,0,1-.72,3.16,5.2,5.2,0,0,1-1.94,2.17,5.72,5.72,0,0,1-3,.74,5.42,5.42,0,0,1-4.31-1.84A7.6,7.6,0,0,1,328.76,271.28Z" transform="translate(7.33)" style="fill:#2dad7c"/><path d="M358.75,270.71l1.94.67a9.8,9.8,0,0,1-2.24,5.08,5.26,5.26,0,0,1-3.91,1.67,5.45,5.45,0,0,1-3.47-1.12,7.9,7.9,0,0,1-2.35-3.61,16.92,16.92,0,0,1-.92-5.86,15.35,15.35,0,0,1,.92-5.64,7.84,7.84,0,0,1,2.48-3.49,5.66,5.66,0,0,1,3.5-1.18,5,5,0,0,1,3.63,1.49,8.35,8.35,0,0,1,2.12,4.38l-1.89.62q-1-4.2-3.89-4.2a4,4,0,0,0-2.53.84,5.75,5.75,0,0,0-1.71,2.64,13.62,13.62,0,0,0-.64,4.54,12,12,0,0,0,1.29,6.23,3.89,3.89,0,0,0,3.42,2.08,3.54,3.54,0,0,0,2.72-1.28A7.21,7.21,0,0,0,358.75,270.71Z" transform="translate(7.33)" style="fill:#2dad7c"/><path d="M362.86,277.79v-20.2h1.93v17.82H372v2.38Z" transform="translate(7.33)" style="fill:#2dad7c"/><path d="M374.55,277.79v-20.2h1.93v20.2Z" transform="translate(7.33)" style="fill:#2dad7c"/><path d="M379.66,277.79v-20.2h2l7.67,15.89V257.59h1.84v20.2h-2l-7.65-15.9v15.9Z" transform="translate(7.33)" style="fill:#2dad7c"/><path d="M394.66,277.79v-20.2h1.93v20.2Z" transform="translate(7.33)" style="fill:#2dad7c"/><path d="M410.18,270.71l1.94.67a9.88,9.88,0,0,1-2.25,5.08,5.22,5.22,0,0,1-3.91,1.67A5.44,5.44,0,0,1,402.5,277a7.9,7.9,0,0,1-2.35-3.61,16.92,16.92,0,0,1-.92-5.86,15.35,15.35,0,0,1,.92-5.64,7.77,7.77,0,0,1,2.48-3.49,5.64,5.64,0,0,1,3.49-1.18,5,5,0,0,1,3.63,1.49,8.36,8.36,0,0,1,2.13,4.38l-1.89.62q-1-4.2-3.9-4.2a4,4,0,0,0-2.53.84,5.74,5.74,0,0,0-1.7,2.64,13.62,13.62,0,0,0-.64,4.54,12.1,12.1,0,0,0,1.28,6.23,3.9,3.9,0,0,0,3.42,2.08,3.56,3.56,0,0,0,2.73-1.28A7.37,7.37,0,0,0,410.18,270.71Z" transform="translate(7.33)" style="fill:#2dad7c"/><path d="M413.86,268c0-3.45.67-6.09,2-7.95a5.94,5.94,0,0,1,5-2.77,5.58,5.58,0,0,1,3.52,1.24,8.11,8.11,0,0,1,2.51,3.6,15.37,15.37,0,0,1,.93,5.63A13.52,13.52,0,0,1,426,275a5.84,5.84,0,0,1-10.37-.08A13.07,13.07,0,0,1,413.86,268Zm2,0a10,10,0,0,0,1.45,5.8,4.06,4.06,0,0,0,7.09,0,10.83,10.83,0,0,0,1.43-6.12,13.52,13.52,0,0,0-.74-4.66,5.72,5.72,0,0,0-1.71-2.52,3.86,3.86,0,0,0-2.51-.94,4.21,4.21,0,0,0-3.59,2.06C416.32,263,415.85,265.1,415.85,268Z" transform="translate(7.33)" style="fill:#2dad7c"/><path d="M429.48,271.28l1.82-.21a6.76,6.76,0,0,0,.66,2.59,4,4,0,0,0,1.47,1.5,4.14,4.14,0,0,0,2.16.56,3.61,3.61,0,0,0,2.67-1,3.69,3.69,0,0,0,.61-4,2.78,2.78,0,0,0-1-1.09,17.49,17.49,0,0,0-3-1.2,10.11,10.11,0,0,1-2.93-1.4,4.87,4.87,0,0,1-1.36-1.79,6,6,0,0,1-.48-2.45,5.79,5.79,0,0,1,1.39-4,4.83,4.83,0,0,1,3.76-1.55A5.45,5.45,0,0,1,438,258a4.87,4.87,0,0,1,1.89,2.09,7.59,7.59,0,0,1,.72,3.21l-1.86.2a4.63,4.63,0,0,0-1-2.92,3.26,3.26,0,0,0-2.51-1,3.41,3.41,0,0,0-2.49.83,2.83,2.83,0,0,0-.87,2.15,2.66,2.66,0,0,0,.63,1.9,7.06,7.06,0,0,0,2.84,1.37,17.79,17.79,0,0,1,3,1.18,5.27,5.27,0,0,1,2,2,6.24,6.24,0,0,1,.68,3,6.9,6.9,0,0,1-.72,3.16,5.2,5.2,0,0,1-1.94,2.17,5.72,5.72,0,0,1-3,.74,5.42,5.42,0,0,1-4.31-1.84A7.6,7.6,0,0,1,429.48,271.28Z" transform="translate(7.33)" style="fill:#2dad7c"/><path d="M457.24,275.39q-1.77,2.73-4.17,2.73a3.87,3.87,0,0,1-3.4-1.85,7.2,7.2,0,0,1-1.23-4.08,6.92,6.92,0,0,1,3.47-6,12.38,12.38,0,0,1-1.3-2.51,5.72,5.72,0,0,1-.34-1.92,4.86,4.86,0,0,1,1.06-3.2,3.19,3.19,0,0,1,2.55-1.3,3,3,0,0,1,2.42,1.22,4.78,4.78,0,0,1,1,3.09,6,6,0,0,1-2.76,4.92l2.62,4.61a15.77,15.77,0,0,0,.7-2.81l1.85.55a17.79,17.79,0,0,1-1.28,4.35,13,13,0,0,0,2.26,3.1l-1.2,2A13.32,13.32,0,0,1,457.24,275.39Zm-1.14-1.94-3.26-5.65a7.81,7.81,0,0,0-1.93,2.16,4.36,4.36,0,0,0-.54,2.08,5.09,5.09,0,0,0,.75,2.64,2.23,2.23,0,0,0,1.95,1.25,2.7,2.7,0,0,0,1.64-.68A4.73,4.73,0,0,0,456.1,273.45Zm-2.5-8.58a5.9,5.9,0,0,0,1.48-1.62,3.41,3.41,0,0,0,.37-1.63,2.68,2.68,0,0,0-.49-1.7,1.41,1.41,0,0,0-1.16-.64,1.53,1.53,0,0,0-1.2.62,2.5,2.5,0,0,0-.5,1.61,4,4,0,0,0,.71,2.08Z" transform="translate(7.33)" style="fill:#2dad7c"/><path d="M478.47,270.71l1.94.67a9.88,9.88,0,0,1-2.25,5.08,5.22,5.22,0,0,1-3.91,1.67,5.44,5.44,0,0,1-3.46-1.12,7.9,7.9,0,0,1-2.35-3.61,16.92,16.92,0,0,1-.92-5.86,15.35,15.35,0,0,1,.92-5.64,7.77,7.77,0,0,1,2.48-3.49,5.64,5.64,0,0,1,3.49-1.18,5,5,0,0,1,3.63,1.49,8.43,8.43,0,0,1,2.13,4.38l-1.89.62q-1-4.2-3.9-4.2a4,4,0,0,0-2.53.84,5.74,5.74,0,0,0-1.7,2.64,13.62,13.62,0,0,0-.64,4.54,12.1,12.1,0,0,0,1.28,6.23,3.91,3.91,0,0,0,3.43,2.08,3.56,3.56,0,0,0,2.72-1.28A7.37,7.37,0,0,0,478.47,270.71Z" transform="translate(7.33)" style="fill:#2dad7c"/><path d="M482.15,268c0-3.45.67-6.09,2-7.95a5.94,5.94,0,0,1,5-2.77,5.58,5.58,0,0,1,3.52,1.24,8.2,8.2,0,0,1,2.52,3.6,15.59,15.59,0,0,1,.92,5.63,13.52,13.52,0,0,1-1.79,7.32,5.84,5.84,0,0,1-10.37-.08A13.07,13.07,0,0,1,482.15,268Zm2,0a10,10,0,0,0,1.45,5.8,4.05,4.05,0,0,0,7.08,0,10.74,10.74,0,0,0,1.44-6.12,13.52,13.52,0,0,0-.74-4.66,5.72,5.72,0,0,0-1.71-2.52,3.86,3.86,0,0,0-2.51-.94,4.25,4.25,0,0,0-3.6,2.06C484.61,263,484.14,265.1,484.14,268Z" transform="translate(7.33)" style="fill:#2dad7c"/><path d="M498.41,277.79v-20.2h6.47a6.1,6.1,0,0,1,3,.56,4.11,4.11,0,0,1,1.58,1.88,7.13,7.13,0,0,1,.62,3.05,6.09,6.09,0,0,1-1.05,3.71,4.71,4.71,0,0,1-3,1.8,5.33,5.33,0,0,1,1.24,1.12,14.1,14.1,0,0,1,1.51,2.58l2.55,5.5h-2.43l-1.94-4.2a28.58,28.58,0,0,0-1.7-3.32,3.66,3.66,0,0,0-1.12-1.16,3.26,3.26,0,0,0-1.51-.29h-2.23v9Zm1.93-11.29h4.15a4.51,4.51,0,0,0,2.06-.37,2.7,2.7,0,0,0,1.12-1.17,4,4,0,0,0,.41-1.86,3.47,3.47,0,0,0-.79-2.41,3,3,0,0,0-2.34-.87h-4.61Z" transform="translate(7.33)" style="fill:#2dad7c"/><path d="M513,277.79v-20.2h5.5a7.84,7.84,0,0,1,2.86.38,4.09,4.09,0,0,1,2,1.95,8.57,8.57,0,0,1-.48,7.93c-.81,1.15-2.23,1.72-4.23,1.72h-3.74v8.22Zm1.93-10.6h3.78a3.34,3.34,0,0,0,2.6-.92,4,4,0,0,0,.83-2.76,4.74,4.74,0,0,0-.41-2.05,2.5,2.5,0,0,0-1-1.17,4.74,4.74,0,0,0-2.08-.32h-3.74Z" transform="translate(7.33)" style="fill:#2dad7c"/><path d="M525.91,268c0-3.45.67-6.09,2-7.95a6,6,0,0,1,5-2.77,5.56,5.56,0,0,1,3.51,1.24,8.2,8.2,0,0,1,2.52,3.6,15.37,15.37,0,0,1,.93,5.63,13.43,13.43,0,0,1-1.8,7.32,5.84,5.84,0,0,1-10.37-.08A13.06,13.06,0,0,1,525.91,268Zm2,0a9.92,9.92,0,0,0,1.45,5.8,4.05,4.05,0,0,0,7.08,0,10.74,10.74,0,0,0,1.44-6.12,13.77,13.77,0,0,0-.74-4.66,5.65,5.65,0,0,0-1.72-2.52,3.84,3.84,0,0,0-2.5-.94,4.23,4.23,0,0,0-3.6,2.06C528.37,263,527.9,265.1,527.9,268Z" transform="translate(7.33)" style="fill:#2dad7c"/><path d="M542.17,277.79v-20.2h6.47a6.1,6.1,0,0,1,3,.56,4.11,4.11,0,0,1,1.58,1.88,7.13,7.13,0,0,1,.62,3.05,6.09,6.09,0,0,1-1.05,3.71,4.74,4.74,0,0,1-3,1.8,5.55,5.55,0,0,1,1.24,1.12,14.7,14.7,0,0,1,1.51,2.58l2.55,5.5H552.6l-1.94-4.2a28.16,28.16,0,0,0-1.71-3.32,3.46,3.46,0,0,0-1.12-1.16,3.19,3.19,0,0,0-1.5-.29H544.1v9Zm1.93-11.29h4.15a4.51,4.51,0,0,0,2.06-.37,2.7,2.7,0,0,0,1.12-1.17,4,4,0,0,0,.41-1.86,3.51,3.51,0,0,0-.79-2.41,3,3,0,0,0-2.34-.87H544.1Z" transform="translate(7.33)" style="fill:#2dad7c"/><path d="M555.16,277.79l5.62-20.2h2.06l6,20.2H566.6l-1.7-6.12h-6.13l-1.58,6.12Zm4.17-8.3h5l-1.52-5.59c-.47-1.72-.81-3.12-1-4.19a34.81,34.81,0,0,1-.8,3.86Z" transform="translate(7.33)" style="fill:#2dad7c"/><path d="M572.46,277.79V260h-4.8v-2.38h11.55V260h-4.83v17.82Z" transform="translate(7.33)" style="fill:#2dad7c"/><path d="M581.41,277.79v-20.2h1.93v20.2Z" transform="translate(7.33)" style="fill:#2dad7c"/><path d="M590.76,277.79l-5.66-20.2h2.09l3.8,14.67c.29,1.14.54,2.24.76,3.31.23-1.11.49-2.22.78-3.31l4-14.67h2l-5.7,20.2Z" transform="translate(7.33)" style="fill:#2dad7c"/><path d="M599.49,268c0-3.45.67-6.09,2-7.95a6,6,0,0,1,5-2.77,5.58,5.58,0,0,1,3.52,1.24,8.19,8.19,0,0,1,2.51,3.6,15.37,15.37,0,0,1,.93,5.63,13.52,13.52,0,0,1-1.79,7.32,5.84,5.84,0,0,1-10.37-.08A13.07,13.07,0,0,1,599.49,268Zm2,0a10,10,0,0,0,1.45,5.8,4.06,4.06,0,0,0,7.09,0,10.83,10.83,0,0,0,1.43-6.12,13.52,13.52,0,0,0-.74-4.66,5.72,5.72,0,0,0-1.71-2.52,3.86,3.86,0,0,0-2.51-.94,4.21,4.21,0,0,0-3.59,2.06C602,263,601.48,265.1,601.48,268Z" transform="translate(7.33)" style="fill:#2dad7c"/><path d="M615.11,271.28l1.82-.21a6.76,6.76,0,0,0,.66,2.59,3.92,3.92,0,0,0,1.47,1.5,4.14,4.14,0,0,0,2.16.56,3.61,3.61,0,0,0,2.67-1,3.69,3.69,0,0,0,.61-4,2.78,2.78,0,0,0-1-1.09,17.86,17.86,0,0,0-3-1.2,10.11,10.11,0,0,1-2.93-1.4,4.77,4.77,0,0,1-1.36-1.79,6,6,0,0,1-.48-2.45,5.79,5.79,0,0,1,1.39-4,4.81,4.81,0,0,1,3.76-1.55,5.39,5.39,0,0,1,2.84.73,4.83,4.83,0,0,1,1.9,2.09,7.74,7.74,0,0,1,.72,3.21l-1.86.2a4.58,4.58,0,0,0-1-2.92,3.22,3.22,0,0,0-2.5-1,3.45,3.45,0,0,0-2.5.83,2.86,2.86,0,0,0-.86,2.15,2.66,2.66,0,0,0,.63,1.9,7,7,0,0,0,2.84,1.37,17.79,17.79,0,0,1,3,1.18,5.18,5.18,0,0,1,2,2,6.13,6.13,0,0,1,.68,3,6.89,6.89,0,0,1-.71,3.16,5.22,5.22,0,0,1-2,2.17,5.69,5.69,0,0,1-3,.74,5.4,5.4,0,0,1-4.3-1.84A7.55,7.55,0,0,1,615.11,271.28Z" transform="translate(7.33)" style="fill:#2dad7c"/><path d="M315.44,188.79q0,19.54-13.92,32.57t-33.58,13H232.39V119.15h14.13v24h22.15a47.89,47.89,0,0,1,24.47,6.41,43.17,43.17,0,0,1,17.05,18.07A45,45,0,0,1,315.44,188.79Zm-68.92,30.89h20.69q14,0,23.46-8.59t9.47-22.3a30.89,30.89,0,0,0-9.69-23.17,32.93,32.93,0,0,0-23.68-9.32H246.52Z" transform="translate(7.33)" style="fill:#2dad7c"/><path d="M417.86,234.4V156.3H397.61a33.19,33.19,0,0,0-23.75,9.32,32.47,32.47,0,0,0-.15,46.27,32.59,32.59,0,0,0,23.46,9.25,30.79,30.79,0,0,0,15.3-3.93v14.71a51.74,51.74,0,0,1-16,3.06,46.79,46.79,0,0,1-33.59-13.33Q348.94,208.32,349,188.79a46,46,0,0,1,5.1-21.12,44.06,44.06,0,0,1,17.19-18.07,47.91,47.91,0,0,1,24.48-6.41H432V234.4Z" transform="translate(7.33)" style="fill:#2dad7c"/><path d="M522.66,234.4H444.38l50.75-76.35H444.41V143.33h78.25l-50.45,75.91h50.45Z" transform="translate(7.33)" style="fill:#2dad7c"/><path d="M611.1,181.79q-4.08-26.35-32.93-26.36a35.09,35.09,0,0,0-24.84,9.76,30.81,30.81,0,0,0-10.27,23.75,33.2,33.2,0,0,0,33.22,32.93,57.12,57.12,0,0,0,22.15-4.37q12.23-5.25,15.58-14.14l9.77,9.48q-6,11.21-19.09,17.18a61,61,0,0,1-26.52,5.69q-20.4,0-34.9-13.47a43.68,43.68,0,0,1-14.49-33.3q0-19.66,14.57-33.36a49.06,49.06,0,0,1,34.82-13.7q21.86.15,34.24,9.91,14.72,11.51,14.72,35.7c0,1.94,0,4-.15,6.11H557V181.94H611Z" transform="translate(7.33)" style="fill:#2dad7c"/><path d="M265,116.56A49.2,49.2,0,0,1,230.33,103q-14.57-13.55-14.56-33.22t14.56-33.37A48.89,48.89,0,0,1,265,22.73a49.6,49.6,0,0,1,35,13.69q14.72,13.71,14.71,33.37T300,103A49.91,49.91,0,0,1,265,116.56Zm0-80.28A34.81,34.81,0,0,0,240.24,46a31.44,31.44,0,0,0-10.35,23.75,31,31,0,0,0,10.5,23.47A35.26,35.26,0,0,0,265,102.72a35.72,35.72,0,0,0,24.83-9.46,30.93,30.93,0,0,0,10.56-23.47A30.64,30.64,0,0,0,290,46,35.6,35.6,0,0,0,265,36.28Z" transform="translate(7.33)" style="fill:#2dad7c"/><path d="M338.88,234.4H324V0h14.86Z" transform="translate(7.33)" style="fill:#2dad7c"/><path d="M354.05,48.52a43.94,43.94,0,0,1,17.19-18.07A47.91,47.91,0,0,1,395.72,24h22.14V0H432V115.24H396.44q-19.81,0-33.65-13T348.94,69.65A46,46,0,0,1,354.05,48.52Zm63.81-11.37H397.61a33.1,33.1,0,0,0-23.75,9.33,30.72,30.72,0,0,0-9.76,23.17q0,13.68,9.54,22.28t23.53,8.6h20.69Z" transform="translate(7.33)" style="fill:#2dad7c"/><path d="M521.11,62.65Q517,36.28,488.18,36.28A35.09,35.09,0,0,0,463.33,46a30.85,30.85,0,0,0-10.27,23.75A32.07,32.07,0,0,0,462.9,93.1a32,32,0,0,0,23.38,9.62,56.91,56.91,0,0,0,22.15-4.38Q520.67,93.1,524,84.22l9.76,9.47q-6,11.22-19.09,17.18a60.92,60.92,0,0,1-26.51,5.69q-20.4,0-34.9-13.48a43.61,43.61,0,0,1-14.49-33.29q0-19.67,14.56-33.37a49.1,49.1,0,0,1,34.83-13.69q21.84.15,34.23,9.9,14.72,11.52,14.71,35.7,0,2.92-.14,6.12H467.05V62.79H521Z" transform="translate(7.33)" style="fill:#2dad7c"/><path d="M626.44,62.65v52.59H612V63.38a27.22,27.22,0,0,0-7.31-19.23q-7.31-7.87-18.7-7.87t-18.7,7.8Q560,51.87,560,63.38v51.86H545.14V24H560v9.47a56.19,56.19,0,0,1,12.69-7.87,35.72,35.72,0,0,1,14.61-2.91,37.2,37.2,0,0,1,27.74,11.73A39,39,0,0,1,626.44,62.65Z" transform="translate(7.33)" style="fill:#2dad7c"/></g></g></svg>